<svg xmlns="http://www.w3.org/2000/svg" width="190" height="158" viewBox="0 0 190 158" fill="none">
<g style="mix-blend-mode:luminosity">
<circle cx="95" cy="79" r="79" fill="#C4C4C4"/>
<circle cx="95" cy="79" r="79" fill="url(#paint0_radial_601_1128)"/>
<path d="M65 77V144C29.1015 144 0 114.899 0 79C0 43.1015 29.1015 14 65 14V77Z" fill="url(#paint1_radial_601_1128)"/>
<path d="M125 77V144C160.899 144 190 114.899 190 79C190 43.1015 160.899 14 125 14V77Z" fill="url(#paint2_radial_601_1128)"/>
<path d="M125 77V144C160.899 144 190 114.899 190 79C190 43.1015 160.899 14 125 14V77Z" fill="url(#paint3_radial_601_1128)"/>
</g>
<defs>
<radialGradient id="paint0_radial_601_1128" cx="0" cy="0" r="1" gradientUnits="userSpaceOnUse" gradientTransform="translate(95 79) rotate(90) scale(62.5923)">
<stop stop-color="#DD1444"/>
<stop offset="1" stop-color="#111114"/>
</radialGradient>
<radialGradient id="paint1_radial_601_1128" cx="0" cy="0" r="1" gradientUnits="userSpaceOnUse" gradientTransform="translate(65 79) rotate(101.802) scale(102.671 102.671)">
<stop stop-color="#131316"/>
<stop offset="1" stop-color="#E9194B"/>
</radialGradient>
<radialGradient id="paint2_radial_601_1128" cx="0" cy="0" r="1" gradientUnits="userSpaceOnUse" gradientTransform="translate(125 79) rotate(90) scale(90 90)">
<stop stop-color="#131316"/>
<stop offset="1" stop-color="#DD1444"/>
</radialGradient>
<radialGradient id="paint3_radial_601_1128" cx="0" cy="0" r="1" gradientUnits="userSpaceOnUse" gradientTransform="translate(125 79) rotate(78.1976) scale(102.671 102.671)">
<stop stop-color="#131316"/>
<stop offset="1" stop-color="#E9194B"/>
</radialGradient>
</defs>
</svg>