<svg xmlns="http://www.w3.org/2000/svg" width="195" height="131" viewBox="0 0 195 131" fill="none">
<g style="mix-blend-mode:luminosity">
<path d="M130 65.0714C130 50.542 125.132 36.4315 116.173 24.9927C107.215 13.554 94.6817 5.44666 80.5756 1.96507C66.4695 -1.51651 51.6036 -0.171576 38.3514 5.78518C25.0993 11.7419 14.2249 21.967 7.46461 34.8279C0.704312 47.6887 -1.55213 62.4438 1.05555 76.7373C3.66322 91.0307 10.9846 104.038 21.8509 113.684C32.7171 123.329 46.5016 129.055 61.0035 129.948C75.5055 130.842 84.0322 128.81 96.0001 120.571L65.0001 65.0713L130 65.0714Z" fill="#DFCDCD"/>
<path d="M130 65.0714C130 50.542 125.132 36.4315 116.173 24.9927C107.215 13.554 94.6817 5.44666 80.5756 1.96507C66.4695 -1.51651 51.6036 -0.171576 38.3514 5.78518C25.0993 11.7419 14.2249 21.967 7.46461 34.8279C0.704312 47.6887 -1.55213 62.4438 1.05555 76.7373C3.66322 91.0307 10.9846 104.038 21.8509 113.684C32.7171 123.329 46.5016 129.055 61.0035 129.948C75.5055 130.842 84.0322 128.81 96.0001 120.571L65.0001 65.0713L130 65.0714Z" fill="url(#paint0_angular_601_1119)"/>
<path d="M130 65.0714C130 50.542 125.132 36.4315 116.173 24.9927C107.215 13.554 94.6817 5.44666 80.5756 1.96507C66.4695 -1.51651 51.6036 -0.171576 38.3514 5.78518C25.0993 11.7419 14.2249 21.967 7.46461 34.8279C0.704312 47.6887 -1.55213 62.4438 1.05555 76.7373C3.66322 91.0307 10.9846 104.038 21.8509 113.684C32.7171 123.329 46.5016 129.055 61.0035 129.948C75.5055 130.842 84.0322 128.81 96.0001 120.571L65.0001 65.0713L130 65.0714Z" fill="url(#paint1_angular_601_1119)"/>
</g>
<g style="mix-blend-mode:luminosity">
<path d="M64.9999 65.0712C64.9999 79.6006 69.8679 93.7111 78.8266 105.15C87.7854 116.589 100.318 124.696 114.424 128.178C128.531 131.659 143.396 130.314 156.649 124.357C169.901 118.401 180.775 108.176 187.535 95.3147C194.296 82.4538 196.552 67.6988 193.944 53.4053C191.337 39.1118 184.015 26.1041 173.149 16.459C162.283 6.81393 148.498 1.08757 133.996 0.194226C119.495 -0.699117 110.968 1.33281 98.9998 9.57129L130 65.0712H64.9999Z" fill="url(#paint2_angular_601_1119)"/>
</g>
<g style="mix-blend-mode:luminosity">
<path d="M99.0859 9.72559L130 65.071C130 50.5417 125.132 36.4311 116.173 24.9925C111.393 18.8898 105.596 13.7353 99.0859 9.72559Z" fill="url(#paint3_linear_601_1119)"/>
</g>
<defs>
<radialGradient id="paint0_angular_601_1119" cx="0" cy="0" r="1" gradientUnits="userSpaceOnUse" gradientTransform="translate(65.0001 65.0713) rotate(59.5603) scale(56.2539)">
<stop stop-color="#DD1444"/>
<stop offset="1" stop-color="#33141E"/>
</radialGradient>
<radialGradient id="paint1_angular_601_1119" cx="0" cy="0" r="1" gradientUnits="userSpaceOnUse" gradientTransform="translate(65.0001 65.0713) rotate(60.814) scale(63.5709 63.5709)">
<stop stop-color="#2A59D3"/>
<stop offset="1" stop-color="#12142F"/>
</radialGradient>
<radialGradient id="paint2_angular_601_1119" cx="0" cy="0" r="1" gradientUnits="userSpaceOnUse" gradientTransform="translate(130 65.0713) rotate(-119.186) scale(63.5709 63.5709)">
<stop stop-color="#2A59D3"/>
<stop offset="1" stop-color="#12142F"/>
</radialGradient>
<linearGradient id="paint3_linear_601_1119" x1="114.543" y1="9.72559" x2="114.543" y2="65.071" gradientUnits="userSpaceOnUse">
<stop stop-color="#434346"/>
<stop offset="1" stop-color="#4D4D50"/>
</linearGradient>
</defs>
</svg>