<svg width="17" height="18" viewBox="0 0 17 18" fill="none" xmlns="http://www.w3.org/2000/svg">
<g clip-path="url(#clip0_206_979)">
<g clip-path="url(#clip1_206_979)">
<path d="M1 1.5H16V16.5H1V1.5Z" fill="white"/>
<path d="M1 1.5H16V2.65351H1V1.5ZM1 3.80702H16V4.96053H1V3.80702ZM1 6.11404H16V7.26754H1V6.11404ZM1 8.42105H16V9.57456H1V8.42105ZM1 10.7325H16V11.886H1V10.7325ZM1 13.0395H16V14.193H1V13.0395ZM1 15.3465H16V16.5H1V15.3465Z" fill="#E01327"/>
<path d="M1 1.5H9V9.5H1V1.5Z" fill="#3751B4"/>
<path d="M-0.856774 7.59178L-1.03611 7.03038L-1.23338 7.59178H-1.8252L-1.34547 7.9295L-1.52481 8.4909L-1.03611 8.14441L-0.560868 8.4909L-0.744689 7.9295L-0.255995 7.59178H-0.856774ZM1.6674 7.59178L1.48358 7.03038L1.29527 7.59178H0.70346L1.18319 7.9295L1.00385 8.4909L1.48358 8.14441L1.96779 8.4909L1.78845 7.9295L2.26818 7.59178H1.6674ZM4.20054 7.59178L4.00775 7.03038L3.82841 7.59178H3.22315L3.71633 7.9295L3.52802 8.4909L4.00775 8.14441L4.50093 8.4909L4.31262 7.9295L4.79235 7.59178H4.20054ZM6.72022 7.59178L6.54089 7.03038L6.35258 7.59178H5.75629L6.2405 7.9295L6.06116 8.4909L6.54089 8.14441L7.0251 8.4909L6.83231 7.9295L7.32549 7.59178H6.72022ZM1.48358 4.80231L1.29527 5.36371H0.70346L1.18319 5.7102L1.00385 6.26283L1.48358 5.92073L1.96779 6.26283L1.78845 5.7102L2.26818 5.36371H1.6674L1.48358 4.80231ZM-1.03611 4.80231L-1.23338 5.36371H-1.8252L-1.34547 5.7102L-1.52481 6.26283L-1.03611 5.92073L-0.560868 6.26283L-0.744689 5.7102L-0.255995 5.36371H-0.856774L-1.03611 4.80231ZM4.00775 4.80231L3.82841 5.36371H3.22315L3.71633 5.7102L3.52802 6.26283L4.00775 5.92073L4.50093 6.26283L4.31262 5.7102L4.79235 5.36371H4.20054L4.00775 4.80231ZM6.54089 4.80231L6.35258 5.36371H5.75629L6.2405 5.7102L6.06116 6.26283L6.54089 5.92073L7.0251 6.26283L6.83231 5.7102L7.32549 5.36371H6.72022L6.54089 4.80231ZM-1.03611 2.58301L-1.23338 3.13564H-1.8252L-1.34547 3.48213L-1.52481 4.03915L-1.03611 3.69266L-0.560868 4.03915L-0.744689 3.48213L-0.255995 3.13564H-0.856774L-1.03611 2.58301ZM1.48358 2.58301L1.29527 3.13564H0.70346L1.18319 3.48213L1.00385 4.03915L1.48358 3.69266L1.96779 4.03915L1.78845 3.48213L2.26818 3.13564H1.6674L1.48358 2.58301ZM4.00775 2.58301L3.82841 3.13564H3.22315L3.71633 3.48213L3.52802 4.03915L4.00775 3.69266L4.50093 4.03915L4.31262 3.48213L4.79235 3.13564H4.20054L4.00775 2.58301ZM6.54089 2.58301L6.35258 3.13564H5.75629L6.2405 3.48213L6.06116 4.03915L6.54089 3.69266L7.0251 4.03915L6.83231 3.48213L7.32549 3.13564H6.72022L6.54089 2.58301Z" fill="white"/>
</g>
</g>
<rect x="0.5" y="1" width="16" height="16" rx="8" stroke="#DADFE2"/>
<defs>
<clipPath id="clip0_206_979">
<rect x="1" y="1.5" width="15" height="15" rx="7.5" fill="white"/>
</clipPath>
<clipPath id="clip1_206_979">
<rect width="15" height="15" fill="white" transform="translate(1 1.5)"/>
</clipPath>
</defs>
</svg>
