<svg width="17" height="18" viewBox="0 0 17 18" fill="none" xmlns="http://www.w3.org/2000/svg">
<g clip-path="url(#clip0_182_963)">
<path d="M8.475 1.5C5.225 1.5 2.45 3.6 1.425 6.5H15.575C14.525 3.6 11.75 1.5 8.475 1.5Z" fill="white"/>
<path d="M8.475 16.5C11.75 16.5 14.525 14.4 15.55 11.5H1.425C2.45 14.425 5.225 16.5 8.475 16.5Z" fill="#E01327"/>
<path d="M1.425 6.5C1.15 7.275 1 8.125 1 9C1 9.875 1.15 10.725 1.425 11.5H15.575C15.85 10.725 16 9.875 16 9C16 8.125 15.85 7.275 15.575 6.5H1.425Z" fill="#3751B4"/>
</g>
<rect x="0.5" y="1" width="16" height="16" rx="8" stroke="#DADFE2"/>
<defs>
<clipPath id="clip0_182_963">
<rect x="1" y="1.5" width="15" height="15" rx="7.5" fill="white"/>
</clipPath>
</defs>
</svg>
