<svg width="94" height="45" viewBox="0 0 94 45" fill="none" xmlns="http://www.w3.org/2000/svg">
<path fill-rule="evenodd" clip-rule="evenodd" d="M91 31V14C91 7.92487 86.0751 3 80 3C73.9249 3 69 7.92487 69 14V31C69 37.0751 73.9249 42 80 42C86.0751 42 91 37.0751 91 31ZM80 0C72.268 0 66 6.26801 66 14V31C66 38.732 72.268 45 80 45C87.732 45 94 38.732 94 31V14C94 6.26801 87.732 0 80 0ZM79.2847 30.5215C79.2847 29.6931 79.9563 29.0215 80.7847 29.0215C81.6131 29.0215 82.2847 29.6931 82.2847 30.5215V34.5267C82.2847 35.3551 81.6131 36.0267 80.7847 36.0267C79.9563 36.0267 79.2847 35.3551 79.2847 34.5267V30.5215ZM1.75192 27.286C2.41459 27.874 3.27792 28.168 4.34192 28.168C5.32192 28.168 6.11526 27.9067 6.72192 27.384C7.33792 26.852 7.64592 26.166 7.64592 25.326C7.64592 23.8887 6.82459 22.904 5.18192 22.372L3.94992 21.98C3.48326 21.8307 3.14259 21.6487 2.92792 21.434C2.71326 21.21 2.60592 20.9207 2.60592 20.566C2.61526 20.2207 2.75992 19.9453 3.03992 19.74C3.31992 19.5253 3.67459 19.418 4.10392 19.418C4.49592 19.418 4.85059 19.53 5.16792 19.754C5.48526 19.9687 5.69526 20.2953 5.79792 20.734H7.43592C7.37059 19.9687 7.04859 19.306 6.46992 18.746C5.89126 18.1767 5.11192 17.892 4.13192 17.892C3.18926 17.892 2.42392 18.1393 1.83592 18.634C1.25726 19.1287 0.967922 19.8007 0.967922 20.65C0.967922 22.05 1.77992 23.0067 3.40392 23.52L4.62192 23.926C5.53659 24.2247 5.99392 24.71 5.99392 25.382C5.99392 25.7647 5.83526 26.0727 5.51792 26.306C5.20992 26.53 4.81326 26.642 4.32792 26.642C3.84259 26.642 3.40392 26.5113 3.01192 26.25C2.62926 25.9887 2.40992 25.62 2.35392 25.144H0.715922C0.753255 25.9747 1.09859 26.6887 1.75192 27.286ZM10.308 26.698C11.2973 27.678 12.534 28.168 14.018 28.168C15.194 28.168 16.2207 27.8367 17.098 27.174C17.9847 26.502 18.554 25.6667 18.806 24.668H17.042C16.8273 25.2373 16.4447 25.6993 15.894 26.054C15.3433 26.4087 14.718 26.586 14.018 26.586C12.9913 26.586 12.1467 26.2453 11.484 25.564C10.8213 24.8827 10.49 24.038 10.49 23.03C10.49 22.022 10.8213 21.1773 11.484 20.496C12.1467 19.8147 12.9913 19.474 14.018 19.474C14.718 19.474 15.3433 19.6513 15.894 20.006C16.4447 20.3607 16.8273 20.8227 17.042 21.392H18.806C18.554 20.3933 17.9847 19.5627 17.098 18.9C16.2207 18.228 15.194 17.892 14.018 17.892C12.534 17.892 11.2973 18.3867 10.308 19.376C9.328 20.356 8.838 21.574 8.838 23.03C8.838 24.486 9.328 25.7087 10.308 26.698ZM20.4602 18.06V28H22.0982V23.632H22.8402L26.4802 28H28.4962L24.8002 23.534C25.5282 23.3753 26.0835 23.072 26.4662 22.624C26.8582 22.1667 27.0542 21.588 27.0542 20.888C27.0542 20.0573 26.7789 19.3807 26.2282 18.858C25.6869 18.326 24.9589 18.06 24.0442 18.06H20.4602ZM23.8482 22.204H22.0982V19.572H23.8482C24.3335 19.572 24.7162 19.6887 24.9962 19.922C25.2762 20.146 25.4162 20.468 25.4162 20.888C25.4162 21.308 25.2762 21.6347 24.9962 21.868C24.7162 22.092 24.3335 22.204 23.8482 22.204ZM36.2095 25.55C35.5375 26.2407 34.7162 26.586 33.7455 26.586C32.7655 26.586 31.9395 26.2407 31.2675 25.55C30.5955 24.8593 30.2595 24.0193 30.2595 23.03C30.2595 22.0407 30.5955 21.2007 31.2675 20.51C31.9395 19.8193 32.7655 19.474 33.7455 19.474C34.7162 19.474 35.5375 19.8193 36.2095 20.51C36.8815 21.2007 37.2175 22.0407 37.2175 23.03C37.2175 24.0193 36.8815 24.8593 36.2095 25.55ZM33.7455 28.168C35.1735 28.168 36.3869 27.6687 37.3855 26.67C38.3842 25.6713 38.8835 24.458 38.8835 23.03C38.8835 21.602 38.3842 20.3887 37.3855 19.39C36.3869 18.3913 35.1735 17.892 33.7455 17.892C32.3175 17.892 31.1042 18.3913 30.1055 19.39C29.1069 20.3793 28.6075 21.5927 28.6075 23.03C28.6075 24.4673 29.1069 25.6853 30.1055 26.684C31.1042 27.6733 32.3175 28.168 33.7455 28.168ZM40.6809 18.06V28H46.8689V26.432H42.3189V18.06H40.6809ZM48.3645 18.06V28H54.5525V26.432H50.0025V18.06H48.3645Z" fill="#151313"/>
</svg>
